<svg width="22" height="22" viewBox="0 0 22 22" fill="none" xmlns="http://www.w3.org/2000/svg">
<path fill-rule="evenodd" clip-rule="evenodd" d="M16.0515 14.5841L21.2844 20.0266C21.7271 20.487 21.7125 21.2211 21.2524 21.6638C21.0359 21.8722 20.7506 21.9869 20.45 21.9869C20.1323 21.9869 19.8359 21.8607 19.6155 21.6318L14.3428 16.148C12.8457 17.2001 11.0946 17.7544 9.25698 17.7544C4.36218 17.7544 0.379791 13.772 0.379791 8.87719C0.379791 3.98239 4.36218 0 9.25698 0C14.1518 0 18.1342 3.98239 18.1342 8.87719C18.1342 10.9722 17.397 12.9846 16.0515 14.5841ZM15.8184 8.87719C15.8184 5.25916 12.875 2.31579 9.25698 2.31579C5.63895 2.31579 2.69558 5.25916 2.69558 8.87719C2.69558 12.4952 5.63895 15.4386 9.25698 15.4386C12.875 15.4386 15.8184 12.4952 15.8184 8.87719Z" fill="#00CBCF"/>
</svg>
