<svg width="55" height="55" viewBox="0 0 55 55" fill="none" xmlns="http://www.w3.org/2000/svg">
<g id="ic-play-blue">
<path id="Shape" fill-rule="evenodd" clip-rule="evenodd" d="M27.7689 0.488892C12.9186 0.488892 0.880005 12.5275 0.880005 27.3778C0.880005 42.2281 12.9186 54.2667 27.7689 54.2667C42.6192 54.2667 54.6578 42.2281 54.6578 27.3778C54.6578 12.5275 42.6192 0.488892 27.7689 0.488892Z" fill="url(#paint0_linear)"/>
<path id="Shape_2" fill-rule="evenodd" clip-rule="evenodd" d="M36.74 24.0778L24.5178 17.9667C23.3781 17.3977 22.0247 17.461 20.9431 18.1339C19.8614 18.8068 19.2066 19.9929 19.2133 21.2667V33.4889C19.2151 34.7584 19.8734 35.9367 20.9535 36.6037C22.0337 37.2707 23.382 37.3315 24.5178 36.7645L36.74 30.6534C37.9845 30.0331 38.7711 28.7622 38.7711 27.3717C38.7711 25.9812 37.9845 24.7103 36.74 24.09V24.0778Z" fill="white"/>
</g>
<defs>
<linearGradient id="paint0_linear" x1="-25.1598" y1="26.9532" x2="27.7689" y2="80.731" gradientUnits="userSpaceOnUse">
<stop stop-color="#00CBCF"/>
<stop offset="1" stop-color="#007AD9"/>
</linearGradient>
</defs>
</svg>
