<svg width="215" height="50" viewBox="0 0 215 50" fill="none" xmlns="http://www.w3.org/2000/svg">
<rect width="215" height="50" rx="6" fill="#BACDE7"/>
<path fill-rule="evenodd" clip-rule="evenodd" d="M27.3327 26.6331H20V23.4032H27.3327V16H30.6489V23.4032H38V26.6331H30.6489V34H27.3327V26.6331Z" fill="white"/>
<path fill-rule="evenodd" clip-rule="evenodd" d="M191.915 29.4077L187.187 21.8824C186.82 21.2994 187.009 20.5378 187.609 20.1815C187.809 20.0628 188.038 20 188.272 20H197.728C198.431 20 199 20.5539 199 21.2373C199 21.4649 198.935 21.6882 198.813 21.8824L194.085 29.4077C193.719 29.9908 192.936 30.1746 192.337 29.8183C192.165 29.7159 192.02 29.5752 191.915 29.4077Z" fill="white"/>
<path opacity="0.613678" d="M170 15V35" stroke="white" stroke-linecap="square"/>
<path d="M67.8203 31H65.4375V19.5781H71.9844V21.5625H67.8203V24.5078H71.6953V26.4844H67.8203V31ZM79.5781 31L79.1172 29.8125H79.0547C78.6536 30.3177 78.2396 30.6693 77.8125 30.8672C77.3906 31.0599 76.8385 31.1562 76.1562 31.1562C75.3177 31.1562 74.6562 30.9167 74.1719 30.4375C73.6927 29.9583 73.4531 29.276 73.4531 28.3906C73.4531 27.4635 73.776 26.7812 74.4219 26.3438C75.0729 25.901 76.0521 25.6562 77.3594 25.6094L78.875 25.5625V25.1797C78.875 24.2943 78.4219 23.8516 77.5156 23.8516C76.8177 23.8516 75.9974 24.0625 75.0547 24.4844L74.2656 22.875C75.2708 22.349 76.3854 22.0859 77.6094 22.0859C78.7812 22.0859 79.6797 22.3411 80.3047 22.8516C80.9297 23.362 81.2422 24.138 81.2422 25.1797V31H79.5781ZM78.875 26.9531L77.9531 26.9844C77.2604 27.0052 76.7448 27.1302 76.4062 27.3594C76.0677 27.5885 75.8984 27.9375 75.8984 28.4062C75.8984 29.0781 76.2839 29.4141 77.0547 29.4141C77.6068 29.4141 78.0469 29.2552 78.375 28.9375C78.7083 28.6198 78.875 28.1979 78.875 27.6719V26.9531ZM85.7812 31L82.4531 22.2656H84.9453L86.6328 27.2422C86.8203 27.8724 86.9375 28.4688 86.9844 29.0312H87.0312C87.0573 28.5312 87.1745 27.9349 87.3828 27.2422L89.0625 22.2656H91.5547L88.2266 31H85.7812ZM94.7109 26.6172C94.7109 27.4818 94.8516 28.1354 95.1328 28.5781C95.4193 29.0208 95.8828 29.2422 96.5234 29.2422C97.1589 29.2422 97.6146 29.0234 97.8906 28.5859C98.1719 28.1432 98.3125 27.487 98.3125 26.6172C98.3125 25.7526 98.1719 25.1042 97.8906 24.6719C97.6094 24.2396 97.1484 24.0234 96.5078 24.0234C95.8724 24.0234 95.4141 24.2396 95.1328 24.6719C94.8516 25.099 94.7109 25.7474 94.7109 26.6172ZM100.75 26.6172C100.75 28.0391 100.375 29.151 99.625 29.9531C98.875 30.7552 97.8307 31.1562 96.4922 31.1562C95.6536 31.1562 94.9141 30.974 94.2734 30.6094C93.6328 30.2396 93.1406 29.7109 92.7969 29.0234C92.4531 28.3359 92.2812 27.5339 92.2812 26.6172C92.2812 25.1901 92.6536 24.0807 93.3984 23.2891C94.1432 22.4974 95.1901 22.1016 96.5391 22.1016C97.3776 22.1016 98.1172 22.2839 98.7578 22.6484C99.3984 23.013 99.8906 23.5365 100.234 24.2188C100.578 24.901 100.75 25.7005 100.75 26.6172ZM106.398 29.2578C106.815 29.2578 107.315 29.1667 107.898 28.9844V30.7578C107.305 31.0234 106.576 31.1562 105.711 31.1562C104.758 31.1562 104.062 30.9167 103.625 30.4375C103.193 29.9531 102.977 29.2292 102.977 28.2656V24.0547H101.836V23.0469L103.148 22.25L103.836 20.4062H105.359V22.2656H107.805V24.0547H105.359V28.2656C105.359 28.6042 105.453 28.8542 105.641 29.0156C105.833 29.1771 106.086 29.2578 106.398 29.2578ZM109.57 20.0078C109.57 19.2318 110.003 18.8438 110.867 18.8438C111.732 18.8438 112.164 19.2318 112.164 20.0078C112.164 20.3776 112.055 20.6667 111.836 20.875C111.622 21.0781 111.299 21.1797 110.867 21.1797C110.003 21.1797 109.57 20.7891 109.57 20.0078ZM112.055 31H109.672V22.2656H112.055V31ZM118.242 29.2578C118.659 29.2578 119.159 29.1667 119.742 28.9844V30.7578C119.148 31.0234 118.419 31.1562 117.555 31.1562C116.602 31.1562 115.906 30.9167 115.469 30.4375C115.036 29.9531 114.82 29.2292 114.82 28.2656V24.0547H113.68V23.0469L114.992 22.25L115.68 20.4062H117.203V22.2656H119.648V24.0547H117.203V28.2656C117.203 28.6042 117.297 28.8542 117.484 29.0156C117.677 29.1771 117.93 29.2578 118.242 29.2578ZM125.133 23.7969C124.628 23.7969 124.232 23.9583 123.945 24.2812C123.659 24.599 123.495 25.0521 123.453 25.6406H126.797C126.786 25.0521 126.633 24.599 126.336 24.2812C126.039 23.9583 125.638 23.7969 125.133 23.7969ZM125.469 31.1562C124.062 31.1562 122.964 30.7682 122.172 29.9922C121.38 29.2161 120.984 28.1172 120.984 26.6953C120.984 25.2318 121.349 24.1016 122.078 23.3047C122.812 22.5026 123.826 22.1016 125.117 22.1016C126.352 22.1016 127.312 22.4531 128 23.1562C128.688 23.8594 129.031 24.8307 129.031 26.0703V27.2266H123.398C123.424 27.9036 123.625 28.4323 124 28.8125C124.375 29.1927 124.901 29.3828 125.578 29.3828C126.104 29.3828 126.602 29.3281 127.07 29.2188C127.539 29.1094 128.029 28.9349 128.539 28.6953V30.5391C128.122 30.7474 127.677 30.901 127.203 31C126.729 31.1042 126.151 31.1562 125.469 31.1562Z" fill="white"/>
</svg>
