<svg width="22" height="22" viewBox="0 0 22 22" fill="none" xmlns="http://www.w3.org/2000/svg">
<g id="ic-loadmore">
<g id="ic-arrow-blue copy 4">
<path id="Oval 4" fill-rule="evenodd" clip-rule="evenodd" d="M11 22C17.0751 22 22 17.0751 22 11C22 4.92487 17.0751 0 11 0C4.92487 0 0 4.92487 0 11C0 17.0751 4.92487 22 11 22Z" fill="#00CBCF"/>
<path id="Shape" fill-rule="evenodd" clip-rule="evenodd" d="M9.90361 7.0496C9.75355 6.90978 9.51972 6.9139 9.3747 7.05893C9.22967 7.20396 9.22554 7.43779 9.36536 7.58784L13.4276 11.6501L9.36536 15.5701C9.22554 15.7201 9.22967 15.954 9.3747 16.099C9.51972 16.244 9.75355 16.2482 9.90361 16.1083L14.433 11.6501L9.90361 7.0496Z" fill="white" stroke="white"/>
</g>
</g>
</svg>
