<svg width="24" height="24" viewBox="0 0 24 24" fill="none" xmlns="http://www.w3.org/2000/svg">
<g id="ic-user-main-page">
<path id="Combined Shape" fill-rule="evenodd" clip-rule="evenodd" d="M11.9286 22.8571C17.9643 22.8571 22.8571 17.9643 22.8571 11.9286C22.8571 5.89289 17.9643 1 11.9286 1C5.89289 1 1 5.89289 1 11.9286C1 17.9643 5.89289 22.8571 11.9286 22.8571Z" fill="#D7D7D7" stroke="#D7D7D7" stroke-width="1.5"/>
<path id="Shape" fill-rule="evenodd" clip-rule="evenodd" d="M12.0962 13.0235C14.0539 13.0235 15.6492 11.1121 15.6492 8.76025C15.6492 6.40836 14.0539 4.49701 12.0962 4.49701C10.1386 4.49701 8.54333 6.40836 8.54333 8.76025C8.54333 11.1121 10.1421 13.0235 12.0962 13.0235Z" fill="white" stroke="#D7D7D7" stroke-width="1.5"/>
<path id="Shape_2" fill-rule="evenodd" clip-rule="evenodd" d="M15.3471 12.0021C15.0528 11.9727 9.13963 11.9727 8.8453 12.0021C8.80622 12.0021 4.81274 12.4569 4.81274 16.7947C4.81274 17.089 5.05135 17.3276 5.34568 17.3276C5.34568 17.3276 9.71717 19.548 11.9029 19.548C14.2175 19.548 18.8467 17.3276 18.8467 17.3276C19.1411 17.3276 19.3797 17.089 19.3797 16.7947C19.3797 12.4569 15.3862 12.0021 15.3471 12.0021Z" fill="white" stroke="#D7D7D7" stroke-width="1.5"/>
</g>
</svg>
