<svg width="31" height="30" viewBox="0 0 31 30" fill="none" xmlns="http://www.w3.org/2000/svg">
<path fill-rule="evenodd" clip-rule="evenodd" d="M16.3973 26.3226C15.8147 26.0163 15.1186 26.0163 14.536 26.3226L8.1208 29.6953C6.65354 30.4667 4.93868 29.2207 5.2189 27.5869L6.44409 20.4435C6.55537 19.7947 6.34027 19.1327 5.8689 18.6733L0.678907 13.6143C-0.508127 12.4572 0.146894 10.4413 1.78733 10.2029L8.95972 9.16067C9.61114 9.06602 10.1743 8.65688 10.4656 8.06659L13.6732 1.5673C14.4068 0.0808122 16.5265 0.0808135 17.2601 1.5673L20.4677 8.06659C20.759 8.65688 21.3222 9.06602 21.9736 9.16067L29.146 10.2029C30.7864 10.4413 31.4414 12.4572 30.2544 13.6143L25.0644 18.6733C24.5931 19.1327 24.378 19.7947 24.4892 20.4435L25.7144 27.5869C25.9946 29.2207 24.2798 30.4667 22.8125 29.6953L16.3973 26.3226Z" fill="#D2D2D2"/>
</svg>
